<svg xmlns="http://www.w3.org/2000/svg" xmlns:xlink="http://www.w3.org/1999/xlink" version="1.1" width="256" height="256" viewBox="0 0 256 256" xml:space="preserve">

<defs>
</defs>
<g style="stroke: none; stroke-width: 0; stroke-dasharray: none; stroke-linecap: butt; stroke-linejoin: miter; stroke-miterlimit: 10; fill: none; fill-rule: nonzero; opacity: 1;" transform="translate(1.4065934065934016 1.4065934065934016) scale(2.81 2.81)" >
	<path d="M 45 90 C 20.187 90 0 69.813 0 45 C 0 20.187 20.187 0 45 0 c 24.813 0 45 20.187 45 45 C 90 69.813 69.813 90 45 90 z M 45 4 C 22.393 4 4 22.393 4 45 s 18.393 41 41 41 s 41 -18.393 41 -41 S 67.607 4 45 4 z" style="stroke: none; stroke-width: 1; stroke-dasharray: none; stroke-linecap: butt; stroke-linejoin: miter; stroke-miterlimit: 10; fill: rgb(0,0,0); fill-rule: nonzero; opacity: 1;" transform=" matrix(1 0 0 1 0 0) " stroke-linecap="round" />
	<path d="M 45 69.345 c -7.954 0 -15.337 -3.969 -19.751 -10.617 c -0.611 -0.92 -0.36 -2.162 0.56 -2.772 c 0.92 -0.613 2.162 -0.36 2.772 0.56 c 3.671 5.529 9.809 8.83 16.419 8.83 c 6.61 0 12.748 -3.301 16.419 -8.83 c 0.61 -0.921 1.85 -1.173 2.772 -0.56 c 0.92 0.61 1.171 1.853 0.56 2.772 C 60.337 65.376 52.953 69.345 45 69.345 z" style="stroke: none; stroke-width: 1; stroke-dasharray: none; stroke-linecap: butt; stroke-linejoin: miter; stroke-miterlimit: 10; fill: rgb(0,0,0); fill-rule: nonzero; opacity: 1;" transform=" matrix(1 0 0 1 0 0) " stroke-linecap="round" />
	<path d="M 34.573 44.951 c -0.469 0 -0.94 -0.113 -1.375 -0.342 L 29.5 42.665 l -3.697 1.944 c -1.003 0.525 -2.196 0.439 -3.111 -0.226 c -0.916 -0.666 -1.366 -1.772 -1.174 -2.888 l 0.706 -4.116 l -2.991 -2.916 c -0.811 -0.791 -1.097 -1.951 -0.747 -3.028 c 0.351 -1.077 1.264 -1.847 2.385 -2.009 l 4.132 -0.6 l 1.849 -3.746 c 0.501 -1.015 1.516 -1.646 2.648 -1.646 s 2.147 0.631 2.648 1.646 l 1.849 3.746 l 4.133 0.601 c 1.12 0.162 2.033 0.932 2.384 2.009 c 0.35 1.077 0.064 2.237 -0.747 3.028 l -2.991 2.916 l 0.706 4.117 c 0.192 1.115 -0.258 2.221 -1.174 2.887 C 35.79 44.759 35.184 44.951 34.573 44.951 z M 23.544 33.08 l 1.866 1.819 c 0.696 0.678 1.014 1.656 0.849 2.615 l -0.44 2.567 l 2.307 -1.213 c 0.86 -0.452 1.889 -0.453 2.749 0.001 l 2.306 1.212 l -0.44 -2.569 c -0.165 -0.958 0.153 -1.935 0.85 -2.614 l 1.866 -1.818 l -2.579 -0.375 c -0.964 -0.141 -1.794 -0.745 -2.224 -1.616 L 29.5 28.753 l -1.153 2.336 c -0.429 0.871 -1.26 1.475 -2.222 1.615 L 23.544 33.08 z M 28.561 26.851 C 28.561 26.851 28.562 26.852 28.561 26.851 L 28.561 26.851 z" style="stroke: none; stroke-width: 1; stroke-dasharray: none; stroke-linecap: butt; stroke-linejoin: miter; stroke-miterlimit: 10; fill: rgb(0,0,0); fill-rule: nonzero; opacity: 1;" transform=" matrix(1 0 0 1 0 0) " stroke-linecap="round" />
	<path d="M 65.574 44.951 c -0.47 0 -0.94 -0.113 -1.376 -0.342 L 60.5 42.665 l -3.697 1.944 c -1.001 0.526 -2.192 0.442 -3.109 -0.225 c -0.915 -0.665 -1.366 -1.771 -1.176 -2.887 l 0.707 -4.118 l -2.991 -2.916 c -0.811 -0.789 -1.098 -1.949 -0.747 -3.027 c 0.35 -1.077 1.264 -1.848 2.385 -2.01 l 4.133 -0.6 l 1.848 -3.746 c 0.502 -1.015 1.517 -1.646 2.648 -1.646 s 2.146 0.631 2.648 1.646 l 1.848 3.746 l 4.133 0.601 c 1.121 0.162 2.035 0.933 2.385 2.01 c 0.351 1.078 0.063 2.238 -0.749 3.028 l -2.989 2.915 l 0.706 4.116 c 0.191 1.118 -0.26 2.224 -1.175 2.889 C 66.789 44.76 66.184 44.951 65.574 44.951 z M 60.5 38.529 c 0.472 0 0.944 0.113 1.375 0.34 l 2.306 1.212 l -0.44 -2.568 c -0.164 -0.96 0.153 -1.937 0.85 -2.614 l 1.865 -1.818 l -2.578 -0.375 c -0.961 -0.14 -1.791 -0.743 -2.222 -1.611 l -1.155 -2.34 l -1.152 2.336 c -0.434 0.873 -1.264 1.475 -2.223 1.615 l -2.58 0.375 l 1.866 1.819 c 0.695 0.677 1.013 1.654 0.85 2.612 l -0.441 2.57 l 2.307 -1.213 C 59.556 38.642 60.027 38.529 60.5 38.529 z" style="stroke: none; stroke-width: 1; stroke-dasharray: none; stroke-linecap: butt; stroke-linejoin: miter; stroke-miterlimit: 10; fill: rgb(0,0,0); fill-rule: nonzero; opacity: 1;" transform=" matrix(1 0 0 1 0 0) " stroke-linecap="round" />
</g>
</svg>